<svg xmlns="http://www.w3.org/2000/svg" viewBox="0 0 512 512">
  <defs>
    <linearGradient id="bg" x1="0" y1="0" x2="1" y2="1">
      <stop offset="0" stop-color="#06111f"/>
      <stop offset="1" stop-color="#0f2747"/>
    </linearGradient>
    <linearGradient id="blue" x1="0" y1="0" x2="1" y2="1">
      <stop offset="0" stop-color="#38bdf8"/>
      <stop offset="1" stop-color="#0369a1"/>
    </linearGradient>
    <filter id="shadow" x="-20%" y="-20%" width="140%" height="140%">
      <feDropShadow dx="0" dy="12" stdDeviation="12" flood-color="#000000" flood-opacity="0.45"/>
    </filter>
  </defs>

  <rect x="18" y="18" width="476" height="476" rx="105" fill="url(#bg)"/>
  <circle cx="256" cy="240" r="178" fill="none" stroke="url(#blue)" stroke-width="15" opacity="0.95"/>

  <g filter="url(#shadow)">
    <path d="M165 86h150l78 78v212c0 28-22 50-50 50H165c-28 0-50-22-50-50V136c0-28 22-50 50-50z" fill="#f8fafc"/>
    <path d="M315 86v58c0 20 16 36 36 36h42" fill="#dbeafe"/>
    <rect x="105" y="146" width="244" height="78" rx="16" fill="#e11d1d"/>
    <text x="226" y="200" text-anchor="middle" font-family="Arial, Helvetica, sans-serif" font-size="56" font-weight="900" fill="#ffffff">PDF</text>

    <rect x="160" y="260" width="160" height="13" rx="7" fill="#9ca3af"/>
    <rect x="160" y="295" width="142" height="13" rx="7" fill="#9ca3af"/>
    <rect x="160" y="330" width="125" height="13" rx="7" fill="#9ca3af"/>

    <circle cx="356" cy="346" r="57" fill="#e11d1d"/>
    <rect x="347" y="311" width="18" height="70" rx="8" fill="#ffffff"/>
    <rect x="321" y="337" width="70" height="18" rx="8" fill="#ffffff"/>
  </g>

  <text x="256" y="468" text-anchor="middle" font-family="Arial, Helvetica, sans-serif" font-size="46" font-weight="900" fill="#ffffff">PDF PRO</text>
</svg>
